<?xml version="1.0" encoding="utf-8"?>
<!-- Generator: Adobe Illustrator 27.5.0, SVG Export Plug-In . SVG Version: 6.00 Build 0)  -->
<svg version="1.1" id="Layer_1" xmlns="http://www.w3.org/2000/svg" xmlns:xlink="http://www.w3.org/1999/xlink" x="0px" y="0px"
	 viewBox="0 0 2048 2048" style="enable-background:new 0 0 2048 2048;" xml:space="preserve">
<style type="text/css">
	.st0{fill:#EE243D;}
	.st1{fill:#FFFFFF;}
</style>
<path class="st0" d="M1415.88,1496.25c0,69.96,0.72,139.93-0.64,209.86c-0.25,13.16-5.59,29.34-14.48,38.22
	c-6.96,6.96-26.3,10.18-34.29,5.36c-11.15-6.73-22.68-21.98-23.78-34.49c-3.16-35.91-1.15-72.27-1.16-108.46
	c-0.02-49.05,0.21-98.1-0.1-147.15c-0.21-32.73-18.07-52.35-46.7-52.35c-27.86-0.01-46.12,20.75-46.33,52.85
	c-0.13,20.1,0.42,40.22-0.18,60.3c-0.74,24.69-15.93,40.94-37.82,41.65c-22.85,0.75-38.46-15.49-39.8-41.74
	c-0.45-8.83,0.5-17.78-0.6-26.5c-2.08-16.43-11.86-27.35-28.52-26.99c-16.46,0.35-26.85,10.98-27.42,27.84
	c-0.83,24.9-0.2,49.85-0.38,74.77c-0.49,67.27-49.42,117.83-114.07,117.99c-63.84,0.16-112.47-48.64-114.17-115.12
	c-0.63-24.91,0.22-49.86-0.3-74.78c-0.48-23.4-12.16-38.06-29.42-36.15c-20.8,2.29-26.97,16.33-27.12,35.83
	c-0.27,35.08-15.16,53.86-42.87,56.53c-29.87,2.87-50.96-15.86-52.82-48.68c-1.22-21.61-10.87-35.3-32.23-38.45
	c-18.18-2.67-34.8,13.36-35.94,33.87c-0.85,15.23,2.03,31.06-1.21,45.63c-1.95,8.79-2.01,23.45-19.08,23.45
	c-17.07,0-21.15-15.44-21.27-23.32c-1.4-90.03-1.71-180.12-0.13-270.15c0.66-37.68,29.58-69.97,66.66-79.69
	c158.98-41.69,320.21-63.86,484.28-43.08c59.25,7.5,117.75,24.09,175.29,40.98c46.68,13.7,65.61,43.52,66.05,92.1
	c0.64,69.95,0.16,139.9,0.16,209.85C1415.61,1496.25,1415.75,1496.25,1415.88,1496.25z M755.74,1288.3
	c127.35,36.8,415.45,36.49,528.23-0.25C1108.01,1309.3,932.09,1306.68,755.74,1288.3z"/>
<path class="st0" d="M1131.53,173.9c71.66,53.44,116.3,122.72,122.06,213.44c4.43,69.72-13.42,135.16-39.84,198.94
	c-6.68,16.13-13.94,33.57-13.94,50.41c0,13.1,7.63,31.22,17.86,37.79c8.94,5.74,28.57,2.52,39.41-3.75
	c37.18-21.51,52.28-57.11,54.26-98.9c0.43-9.17,0.06-18.37,0.06-32.01c41.05,89.49,23.27,172.88-43.79,221.99
	c-29.04,21.27-62.14,36.98-91.29,58.11c-27.64,20.04-57,40.38-77.7,66.78c-40.56,51.74-23.01,94.82,40.25,110.71
	c4.31,1.08,8.56,2.39,14.98,4.19c-131.51,64.11-288.63,19.21-308.62-143.72c-5.73-46.72,8.76-90.79,41.99-124
	c45.37-45.34,95-86.38,141.99-130.15c34.63-32.26,70.64-63.61,101.28-99.44c63.65-74.42,75.67-159.07,38.3-249.82
	C1157.53,227.13,1144.01,200.73,1131.53,173.9z"/>
<path class="st0" d="M836.31,750.99c-42.22-52.86-56.03-110.52-25.52-168.17c27.89-52.69,64.2-101.59,101.44-148.48
	c36.75-46.27,65.38-93.93,60.7-154.89c-1.95-25.36-8.57-50.36-12.93-74.73c23.82,14.86,48.55,60.82,46.8,102.17
	c-1.86,43.79-10.43,87.28-15.78,130.93c-1.36,11.08-4.86,23.35-1.6,33.15c3.66,11.01,12.62,26.22,21.56,27.97
	c10.5,2.06,29.68-5.26,34.08-14.04c10.36-20.67,14.17-44.63,19.8-64.32c23.2,27.97,18.12,98.05-14.84,131.43
	c-14,14.18-30.27,26.48-46.82,37.71c-61.71,41.93-117.81,89.4-158.31,153.17C843.25,745.46,840.37,747.22,836.31,750.99z"/>
<path class="st1" d="M755.74,1288.3c176.35,18.38,352.27,21,528.23-0.25C1171.19,1324.8,883.09,1325.1,755.74,1288.3z"/>
</svg>
